<svg width="867" height="145" viewBox="0 0 867 145" fill="none" xmlns="http://www.w3.org/2000/svg">
<g opacity="0.5">
<g opacity="0.5">
<path d="M-13.0469 167.359C187.584 134.235 256.049 97.7068 280.862 69.9954C308.551 39.0681 294.271 5.2661 324.162 3.16696C343.301 1.82234 366.851 14.4444 410.758 42.1135C543.905 126.016 546.92 148.298 603.647 154.081C683.114 162.188 732.102 124.048 854.253 124.87C943.969 125.476 1016.57 146.711 1065.5 165.587" stroke="white" stroke-width="0.42" stroke-miterlimit="10"/>
<path d="M-17.8652 164.029C177.117 131.619 249.515 96.112 276.295 70.1406C306.221 41.1168 292.088 9.06088 321.667 7.54478C340.684 6.56935 363.791 18.9755 406.203 45.6964C535.095 126.889 539.093 149.448 595.384 154.945C675.311 162.642 722.164 121.743 845.61 121.187C848.301 121.175 850.951 121.175 853.603 121.199C941.19 122.021 1014.82 143.266 1064.8 162.026" stroke="white" stroke-width="0.42" stroke-miterlimit="10"/>
<path d="M-22.668 160.699C166.65 129.005 242.923 94.5808 271.74 70.2879C303.858 43.2099 289.926 12.8597 319.185 11.9246C338.085 11.3194 360.753 23.5107 401.657 49.2824C526.267 127.76 531.225 150.669 587.142 155.81C667.458 163.194 712.271 119.418 836.988 117.502C839.724 117.459 842.452 117.417 845.179 117.422C934.213 117.588 1011.67 139.272 1064.12 158.465" stroke="white" stroke-width="0.42" stroke-miterlimit="10"/>
<path d="M-27.4805 157.369C156.201 126.383 236.23 93.1232 267.179 70.4352C301.399 45.3474 287.769 16.6616 316.693 16.3055C335.485 16.0735 357.687 28.045 397.105 52.8674C517.447 128.64 523.386 151.851 578.893 156.674C659.637 163.691 702.387 117.076 828.36 113.817C831.156 113.744 833.949 113.675 836.733 113.645C927.208 112.67 1008.5 135.276 1063.41 154.901" stroke="white" stroke-width="0.42" stroke-miterlimit="10"/>
<path d="M-32.291 154.04C145.741 123.769 229.404 91.7433 262.616 70.5825C298.802 47.5283 285.626 20.4675 314.206 20.6864C332.894 20.8286 354.635 32.5801 392.558 56.4534C508.629 129.516 515.552 153.029 570.646 157.538C651.842 164.183 692.516 114.717 819.733 110.128C822.589 110.027 825.448 109.926 828.316 109.864C920.227 108.006 1005.35 131.279 1062.74 151.339" stroke="white" stroke-width="0.42" stroke-miterlimit="10"/>
<path d="M-37.1035 150.71C135.282 121.154 222.402 90.4471 258.061 70.7307C296.005 49.7495 283.481 24.2764 311.723 25.0662C330.312 25.5867 351.584 37.1143 388.011 60.0394C499.818 130.391 507.728 154.203 562.404 158.402C644.045 164.671 682.653 112.341 811.111 106.446C814.03 106.312 816.948 106.176 819.891 106.089C913.234 103.356 1002.21 127.286 1062.06 147.78" stroke="white" stroke-width="0.42" stroke-miterlimit="10"/>
<path d="M-41.9121 147.38C124.822 118.537 215.174 89.2336 253.495 70.878C292.919 51.9928 281.355 28.0903 309.229 29.447C327.726 30.3468 348.525 41.6525 383.454 63.6243C490.993 131.266 499.899 155.374 554.15 159.266C636.255 165.156 672.781 109.952 802.477 102.761C805.468 102.596 808.44 102.427 811.449 102.313C906.218 98.7094 999.047 123.294 1061.36 144.219" stroke="white" stroke-width="0.42" stroke-miterlimit="10"/>
<path d="M-46.7227 144.05C114.362 115.92 198.799 85.1412 248.935 71.0253C279.301 51.9535 279.226 31.9093 306.742 33.8269C325.146 35.11 345.473 46.1837 378.907 67.2154C482.175 132.146 492.077 156.546 545.903 160.135C628.469 165.64 662.914 107.553 793.848 99.0817C796.892 98.885 799.939 98.6832 803.023 98.54C899.225 94.0764 995.911 119.301 1060.68 140.662" stroke="white" stroke-width="0.42" stroke-miterlimit="10"/>
<path d="M-51.5352 140.72C103.903 113.304 190.623 83.3447 244.374 71.1725C275.123 53.7944 277.096 35.7333 304.253 38.2077C322.567 39.8761 342.416 50.7158 374.354 70.7963C473.341 133.017 484.259 157.705 537.658 160.995C620.687 166.109 653.041 105.131 785.219 95.3918C788.324 95.1628 791.434 94.9288 794.592 94.7573C892.226 89.4403 992.744 115.302 1059.99 137.095" stroke="white" stroke-width="0.42" stroke-miterlimit="10"/>
<path d="M-56.3477 137.391C93.4417 110.687 182.443 81.5502 239.81 71.3198C270.941 55.6343 274.966 39.5614 301.765 42.5876C319.986 44.6443 339.361 55.251 369.802 74.3813C464.536 133.895 476.444 158.864 529.409 161.857C612.911 166.577 643.16 102.702 776.591 91.7049C779.755 91.4447 782.931 91.1794 786.161 90.9787C885.228 84.8134 989.588 111.305 1059.31 133.532" stroke="white" stroke-width="0.42" stroke-miterlimit="10"/>
<path d="M-61.1562 134.061C82.987 108.07 174.267 79.7547 235.25 71.4681C266.764 57.4762 272.834 43.3955 299.274 46.9684C317.402 49.4176 336.308 59.7872 365.254 77.9642C455.717 134.765 468.633 160.018 521.161 162.719C605.135 167.038 633.273 100.261 767.963 88.0181C771.19 87.7245 774.429 87.43 777.727 87.199C878.236 80.1915 986.433 107.309 1058.62 129.969" stroke="white" stroke-width="0.42" stroke-miterlimit="10"/>
<path d="M-65.9688 130.73C72.5194 105.455 166.096 77.9592 230.691 71.6194C262.588 59.3211 270.698 47.2357 296.782 51.3533C314.812 54.1979 333.251 64.3254 360.698 81.5572C446.894 135.648 460.818 161.177 512.916 163.59C597.368 167.503 623.377 97.8218 759.335 84.3403C762.625 84.0145 765.914 83.6887 769.297 83.4325C871.247 75.5867 983.278 103.323 1057.93 126.417" stroke="white" stroke-width="0.42" stroke-miterlimit="10"/>
<path d="M-70.7793 127.4C62.0628 102.838 157.909 76.1637 226.129 71.7627C258.409 61.158 268.549 51.0729 294.298 55.7291C312.223 58.9711 330.199 68.8565 356.151 85.1392C438.091 136.519 453.014 162.322 504.666 164.45C589.597 167.95 613.465 95.3585 750.709 80.6515C754.055 80.2924 757.422 79.9373 760.876 79.6478C864.274 70.9728 980.133 99.3177 1057.25 122.849" stroke="white" stroke-width="0.42" stroke-miterlimit="10"/>
<path d="M-75.582 124.071C51.602 100.222 149.73 74.3692 221.568 71.9119C254.228 63.0009 266.393 54.9161 291.81 60.11C309.627 63.7514 327.146 73.3907 351.602 88.7242C429.263 137.395 445.206 163.47 496.419 165.315C581.834 168.396 603.542 92.8892 742.078 76.9666C745.487 76.5742 748.92 76.1889 752.437 75.8701C857.285 66.364 976.969 95.3262 1056.57 119.287" stroke="white" stroke-width="0.42" stroke-miterlimit="10"/>
<path d="M-80.3994 120.741C41.1415 97.6049 141.554 72.5737 217.008 72.0582C250.051 64.8408 264.232 58.7603 289.322 64.4928C307.023 68.5348 324.093 77.9269 347.039 92.3122C420.433 138.272 437.386 164.611 488.159 166.18C574.056 168.836 593.596 90.4259 733.439 73.2828C736.908 72.8581 740.407 72.4435 743.992 72.0945C850.303 61.7633 973.802 91.3337 1055.86 115.728" stroke="white" stroke-width="0.42" stroke-miterlimit="10"/>
<path d="M-85.2109 117.411C30.6808 94.9883 133.375 70.7781 212.445 72.2054C245.873 66.6817 262.058 62.6065 286.834 68.8706C304.412 73.315 321.037 82.46 342.503 95.8961C411.626 139.145 429.59 165.747 479.926 167.043C566.305 169.267 583.662 87.9434 724.823 69.6009C728.352 69.143 731.917 68.6992 735.589 68.3209C843.347 57.1625 970.659 87.3362 1055.18 112.16" stroke="white" stroke-width="0.42" stroke-miterlimit="10"/>
<path d="M-90.0234 114.081C20.2222 92.3727 125.196 68.9867 207.884 72.3528C241.676 68.5196 259.874 66.4548 284.345 73.2515C301.792 78.0984 317.983 86.9943 337.95 99.4781C402.806 140.016 421.781 166.877 471.678 167.902C558.537 169.688 573.699 85.456 716.195 65.9071C719.783 65.4148 723.414 64.9427 727.143 64.5342C836.384 52.5668 967.512 83.3417 1054.49 108.602" stroke="white" stroke-width="0.42" stroke-miterlimit="10"/>
<path d="M-94.835 110.747C9.76162 89.7521 117.017 67.1841 203.32 72.497C237.511 70.3595 257.682 70.298 281.851 77.6273C299.167 82.8726 314.927 91.5244 333.396 103.063C393.984 140.89 413.97 168.008 463.427 168.767C550.771 170.11 563.726 82.9715 707.568 62.2283C711.213 61.7017 714.912 61.2014 718.71 60.7626C829.431 47.9751 964.349 79.3482 1053.81 105.045" stroke="white" stroke-width="0.42" stroke-miterlimit="10"/>
<path d="M-99.6436 107.419C-0.699086 87.1435 107.704 78.058 198.763 72.6482C232.837 70.6238 255.487 74.1502 279.366 82.0122C296.541 87.661 311.876 96.0636 328.851 106.653C385.168 141.771 406.162 169.14 455.182 169.635C543.002 170.522 553.741 80.4779 698.94 58.5404C702.642 57.9815 706.416 57.452 710.28 56.9829C822.482 43.3824 961.185 75.3516 1053.12 101.478" stroke="white" stroke-width="0.42" stroke-miterlimit="10"/>
<path d="M-104.455 104.09C-11.1507 84.5209 98.6015 66.4366 194.203 72.7935C228.689 75.0874 253.28 77.9955 276.879 86.391C293.907 92.4433 308.82 100.596 324.299 110.237C376.352 142.645 398.348 170.262 446.935 170.497C535.227 170.924 543.741 77.9793 690.31 54.8535C694.075 54.2604 697.914 53.7056 701.85 53.2043C815.621 38.8694 958.039 71.3561 1052.44 97.9166" stroke="white" stroke-width="0.42" stroke-miterlimit="10"/>
<path d="M-109.268 100.761C-21.6183 81.9053 91.1603 63.2128 189.641 72.9418C224.574 76.3937 251.067 81.8437 274.39 90.7719C291.265 97.2277 305.766 105.132 319.747 113.823C367.533 143.522 390.533 171.454 438.686 171.362C527.448 171.193 533.623 75.4091 681.681 51.1697C685.499 50.5403 689.411 49.9596 693.416 49.4277C808.647 34.2455 954.883 67.3606 1051.75 94.3538" stroke="white" stroke-width="0.42" stroke-miterlimit="10"/>
<path d="M-114.079 97.4324C-32.0789 79.2907 84.3033 60.0091 185.078 73.0911C336.997 92.8155 350.14 172.691 430.442 172.227C521.981 171.698 523.854 67.7853 684.986 45.651C801.67 29.6225 951.741 63.3661 1051.06 90.7941" stroke="white" stroke-width="0.42" stroke-miterlimit="10"/>
</g>
<path opacity="0.15" d="M258.012 159.514L254.376 160.09C248.074 161.088 241.612 161.711 234.991 161.96C228.37 162.209 221.712 161.825 215.017 160.808C208.565 159.752 202.037 157.909 195.432 155.279C189.07 152.612 182.916 148.792 176.97 143.821L30.6605 21.4986L36.4781 20.5777C42.2957 19.6569 48.4742 19.1582 55.0135 19.0818C61.3922 18.8711 67.8879 19.3608 74.5008 20.551C80.953 21.6069 87.3602 23.4687 93.7225 26.1367C100.085 28.8046 106.158 32.5568 111.943 37.3933L258.012 159.514ZM-24.0142 53.8807C-26.746 51.5968 -28.7506 49.1978 -30.0279 46.6837C-31.3053 44.1696 -31.4932 41.7227 -30.5917 39.3431C-29.6902 36.9634 -27.5794 34.8717 -24.2593 33.0679C-21.1 31.1298 -16.3691 29.6619 -10.0667 28.6643C-3.52192 27.6283 2.85673 27.4176 9.06924 28.032C15.1211 28.5121 20.605 29.4816 25.5211 30.9404C30.5189 32.2264 34.9093 33.8483 38.6924 35.806C42.5571 37.591 45.4537 39.2896 47.382 40.9018C48.6675 41.9765 49.7515 43.0033 50.6339 43.9821C51.5981 44.7882 52.3593 45.7862 52.9177 46.9761C47.5958 45.9011 42.7532 45.7089 38.39 46.3995C34.754 46.9751 32.5275 48.1264 31.7104 49.8536C30.7327 51.4464 31.7703 53.5191 34.8235 56.0717L46.6343 65.9462C45.0165 66.5218 42.7532 67.0399 39.8444 67.5003C36.4508 68.0375 32.2102 68.469 27.1225 68.795C21.8742 68.9866 16.3058 68.6697 10.4174 67.8442C4.52897 67.0186 -1.3962 65.5598 -7.35814 63.4676C-13.3201 61.3755 -18.8721 58.1798 -24.0142 53.8807ZM185.783 20.6721C190.925 24.9712 193.568 28.6273 193.712 31.6403C193.857 34.6533 192.752 37.2249 190.399 39.355C188.046 41.4851 184.888 43.1833 180.925 44.4497C176.802 45.5818 173.043 46.4164 169.649 46.9536C166.741 47.414 164.156 47.6633 161.895 47.7016L150.808 38.4317C147.433 35.6104 143.73 33.7199 139.699 32.7601C135.669 31.8003 131.835 31.6082 128.199 32.1837C123.594 32.9127 120.679 34.3327 119.456 36.4437C117.444 35.484 115.834 34.6203 114.627 33.8526C113.503 32.9122 112.297 31.9046 111.012 30.8298C109.084 29.2177 107.52 27.3081 106.322 25.101C105.205 22.7213 104.936 20.4471 105.513 18.2785C106.172 15.9372 107.96 13.8167 110.877 11.9169C113.876 9.84445 118.526 8.30941 124.829 7.31181C131.373 6.27584 137.672 5.99791 143.724 6.47801C150.018 6.91974 155.744 7.85082 160.903 9.27125C166.143 10.519 170.936 12.2368 175.283 14.4249C179.712 16.4402 183.212 18.5226 185.783 20.6721Z" fill="white"/>
</g>
</svg>
