<svg width="56" height="56" viewBox="0 0 56 56" fill="none" xmlns="http://www.w3.org/2000/svg">
<rect width="56" height="56" rx="16" fill="white"/>
<path d="M31.2556 44.8H30.7919C29.988 44.8 29.2151 44.7229 28.473 44.5686C27.731 44.4143 27.0663 44.1367 26.4788 43.7355C25.9223 43.3344 25.4586 42.7791 25.0875 42.0694C24.7474 41.3598 24.5774 40.4342 24.5774 39.2926V11.2H25.3194C26.0614 11.2 26.788 11.2926 27.4991 11.4777C28.2102 11.632 28.844 11.9251 29.4006 12.357C29.9571 12.7581 30.4054 13.3135 30.7455 14.0232C31.0856 14.7328 31.2556 15.643 31.2556 16.7537V44.8ZM14.5601 15.7818C14.5601 15.2573 14.6528 14.7328 14.8383 14.2083C15.0238 13.6838 15.3175 13.2055 15.7195 12.7736C16.1214 12.3416 16.6161 12.0022 17.2035 11.7554C17.791 11.4777 18.4866 11.3389 19.2905 11.3389C20.1252 11.3389 20.8364 11.4931 21.4238 11.8017C22.0112 12.0793 22.475 12.4342 22.8151 12.8661C23.1861 13.2672 23.4489 13.7146 23.6035 14.2083C23.789 14.6711 23.8817 15.0876 23.8817 15.4579C23.8817 15.7047 23.8663 15.9361 23.8354 16.1521C23.8354 16.3372 23.789 16.5532 23.6962 16.8C23.2634 16.4298 22.7687 16.2446 22.2122 16.2446C21.7484 16.2446 21.362 16.3989 21.0528 16.7074C20.7436 16.9851 20.589 17.4171 20.589 18.0033V20.2711C20.3417 20.3328 20.0325 20.3636 19.6615 20.3636C19.2286 20.3636 18.7185 20.3174 18.1311 20.2248C17.5436 20.1014 16.9871 19.87 16.4615 19.5306C15.9359 19.1912 15.4876 18.7284 15.1166 18.1422C14.7456 17.5559 14.5601 16.7692 14.5601 15.7818ZM41.3193 15.7818C41.3193 16.7692 41.1338 17.5559 40.7628 18.1422C40.3918 18.7284 39.9435 19.1912 39.4179 19.5306C38.8923 19.87 38.3358 20.1014 37.7483 20.2248C37.1609 20.3174 36.6508 20.3636 36.2179 20.3636C35.8469 20.3636 35.5377 20.3328 35.2904 20.2711V18.1422C35.2904 17.4942 35.1358 17.016 34.8266 16.7074C34.5174 16.3989 34.131 16.2446 33.6672 16.2446C33.0798 16.2446 32.5851 16.4298 32.1832 16.8C32.0904 16.5532 32.0286 16.3372 31.9976 16.1521C31.9976 15.9361 31.9976 15.7047 31.9976 15.4579C31.9976 15.0876 32.0749 14.6711 32.2295 14.2083C32.415 13.7146 32.6778 13.2672 33.0179 12.8661C33.3889 12.4342 33.8527 12.0793 34.4092 11.8017C34.9967 11.4931 35.6923 11.3389 36.4962 11.3389C37.3309 11.3389 38.0421 11.4777 38.6295 11.7554C39.2478 12.0331 39.7425 12.3879 40.1135 12.8198C40.5155 13.2209 40.8092 13.6992 40.9947 14.2546C41.2111 14.7791 41.3193 15.2882 41.3193 15.7818Z" fill="url(#paint0_linear_6_12322)"/>
<defs>
<linearGradient id="paint0_linear_6_12322" x1="14.5601" y1="37.2341" x2="49.6437" y2="31.8222" gradientUnits="userSpaceOnUse">
<stop stop-color="#2754C8"/>
<stop offset="1" stop-color="#110F72"/>
</linearGradient>
</defs>
</svg>
