<svg width="56" height="56" viewBox="0 0 56 56" fill="none" xmlns="http://www.w3.org/2000/svg">
<rect width="56" height="56" rx="16" fill="url(#paint0_linear_68_12431)"/>
<path d="M31.2561 44.7999H30.7923C29.9885 44.7999 29.2155 44.7228 28.4735 44.5685C27.7315 44.4143 27.0668 44.1366 26.4793 43.7355C25.9228 43.3344 25.459 42.779 25.088 42.0694C24.7479 41.3597 24.5779 40.4341 24.5779 39.2925V11.2H25.3199C26.0619 11.2 26.7885 11.2925 27.4996 11.4776C28.2107 11.6319 28.8445 11.925 29.401 12.357C29.9576 12.7581 30.4059 13.3134 30.746 14.0231C31.0861 14.7327 31.2561 15.6429 31.2561 16.7537V44.7999ZM14.5605 15.7818C14.5605 15.2572 14.6533 14.7327 14.8388 14.2082C15.0243 13.6837 15.318 13.2055 15.72 12.7735C16.1219 12.3415 16.6166 12.0022 17.204 11.7553C17.7914 11.4776 18.4871 11.3388 19.291 11.3388C20.1257 11.3388 20.8368 11.4931 21.4243 11.8016C22.0117 12.0793 22.4755 12.4341 22.8156 12.8661C23.1866 13.2672 23.4494 13.7146 23.604 14.2082C23.7895 14.671 23.8822 15.0876 23.8822 15.4578C23.8822 15.7046 23.8668 15.936 23.8359 16.152C23.8359 16.3371 23.7895 16.5531 23.6967 16.8C23.2639 16.4297 22.7692 16.2446 22.2127 16.2446C21.7489 16.2446 21.3624 16.3988 21.0533 16.7074C20.7441 16.9851 20.5895 17.417 20.5895 18.0033V20.271C20.3422 20.3327 20.033 20.3636 19.662 20.3636C19.2291 20.3636 18.719 20.3173 18.1315 20.2247C17.5441 20.1013 16.9876 19.8699 16.462 19.5305C15.9364 19.1911 15.4881 18.7283 15.1171 18.1421C14.7461 17.5559 14.5605 16.7691 14.5605 15.7818ZM41.3198 15.7818C41.3198 16.7691 41.1343 17.5559 40.7633 18.1421C40.3923 18.7283 39.944 19.1911 39.4184 19.5305C38.8928 19.8699 38.3363 20.1013 37.7488 20.2247C37.1614 20.3173 36.6513 20.3636 36.2184 20.3636C35.8474 20.3636 35.5382 20.3327 35.2909 20.271V18.1421C35.2909 17.4942 35.1363 17.0159 34.8271 16.7074C34.5179 16.3988 34.1315 16.2446 33.6677 16.2446C33.0803 16.2446 32.5856 16.4297 32.1836 16.8C32.0909 16.5531 32.0291 16.3371 31.9981 16.152C31.9981 15.936 31.9981 15.7046 31.9981 15.4578C31.9981 15.0876 32.0754 14.671 32.23 14.2082C32.4155 13.7146 32.6783 13.2672 33.0184 12.8661C33.3894 12.4341 33.8532 12.0793 34.4097 11.8016C34.9972 11.4931 35.6928 11.3388 36.4967 11.3388C37.3314 11.3388 38.0425 11.4776 38.63 11.7553C39.2483 12.033 39.743 12.3878 40.114 12.8198C40.516 13.2209 40.8097 13.6991 40.9952 14.2545C41.2116 14.779 41.3198 15.2881 41.3198 15.7818Z" fill="white"/>
<defs>
<linearGradient id="paint0_linear_68_12431" x1="1.73416e-06" y1="43.3901" x2="72.4497" y2="29.3573" gradientUnits="userSpaceOnUse">
<stop stop-color="#2754C8"/>
<stop offset="1" stop-color="#110F72"/>
</linearGradient>
</defs>
</svg>
